<svg width="3007" height="2965" viewBox="0 0 3007 2965" fill="none" xmlns="http://www.w3.org/2000/svg">
<path d="M887.383 2962H137.883C93.2168 2954.83 3.48344 2907.3 1.88344 2774.5C0.283443 2641.7 1.21678 971.501 1.88344 153.001C9.38344 102.168 51.4834 0.601178 159.883 1.00118C268.283 1.40118 1262.72 1.16784 1746.38 1.00118C2103.05 73.1679 2709.38 408.301 2281.38 1171.5C2524.55 1219 3009.98 1469.9 3006.38 2093.5C3002.78 2717.1 2435.88 2932.33 2152.88 2962C1856.38 2981.33 1217.48 2887.9 1033.88 2359.5C972.717 2236.5 882.083 1908.6 1008.88 1581C1050.55 1482.5 1168.58 1267.8 1307.38 1197C1204.05 1325.17 1028.38 1666.3 1152.38 2005.5C1276.38 2344.7 1531.38 2436.83 1643.38 2440.5C1824.38 2434.5 2150.88 2302.9 2008.88 1824.5C1991.72 1772.83 1927.08 1617.1 1805.88 1407.5C1738.22 1283.17 1643.48 981.401 1805.88 769.001C1847.72 719.834 1943.18 617.801 1990.38 603.001C1749.22 546.335 1182.78 552.601 846.383 1031C726.883 1162.5 498.283 1558.4 539.883 2090C581.483 2621.6 788.883 2892.83 887.383 2962Z"
 fill="#05634B" stroke="black"/>
</svg>
